<?xml version="1.0" encoding="utf-8"?>
<!-- Generator: Adobe Illustrator 16.0.0, SVG Export Plug-In . SVG Version: 6.00 Build 0)  -->
<!DOCTYPE svg PUBLIC "-//W3C//DTD SVG 1.1//EN" "http://www.w3.org/Graphics/SVG/1.1/DTD/svg11.dtd">
<svg version="1.1" id="Layer_1" xmlns="http://www.w3.org/2000/svg" xmlns:xlink="http://www.w3.org/1999/xlink" x="0px" y="0px"
	 width="505.541px" height="111.352px" viewBox="0 0 505.541 111.352" enable-background="new 0 0 505.541 111.352"
	 xml:space="preserve">
<g>
	<path fill="#FFFFFF" d="M18.602,106.356c-5.907-3.334-10.494-8.047-13.73-14.111C1.602,86.187,0,79.147,0,71.137V40.218
		c0-8.012,1.635-15.05,4.871-21.114c3.236-6.065,7.823-10.777,13.73-14.107C24.508,1.667,31.326,0,39.087,0
		s14.577,1.667,20.485,4.997c5.908,3.33,10.462,8.042,13.73,14.107c3.236,6.064,4.869,13.133,4.869,21.114v30.918
		c0,8.011-1.633,15.05-4.869,21.108c-3.269,6.064-7.822,10.777-13.73,14.111c-5.908,3.331-12.725,4.995-20.485,4.995
		S24.508,109.652,18.602,106.356z M49.926,90.833c3.11-1.785,5.529-4.364,7.228-7.699c1.695-3.33,2.545-7.159,2.545-11.528V39.653
		c0-4.336-0.848-8.201-2.545-11.534c-1.698-3.33-4.117-5.905-7.228-7.696c-3.141-1.791-6.756-2.703-10.839-2.703
		c-4.085,0-7.729,0.912-10.84,2.703c-3.142,1.791-5.531,4.367-7.227,7.696c-1.697,3.333-2.544,7.164-2.544,11.534v31.952
		c0,4.369,0.847,8.198,2.544,11.528c1.695,3.335,4.115,5.878,7.227,7.699c3.11,1.796,6.725,2.704,10.84,2.704
		S46.815,92.66,49.926,90.833z"/>
	<path fill="#FFFFFF" d="M174.974,1.099h20.705v109.086h-16.805V26.99l0.751,4.808l-23.844,64.756h-14.39l-23.85-63.249l0.752-6.316
		v83.195h-16.809V1.099h20.707l26.395,72.772L174.974,1.099z"/>
	<path fill="#FFFFFF" d="M237.595,106.574c-5.842-3.169-10.302-7.79-13.351-13.885c-3.046-6.064-4.59-13.386-4.59-21.932V1.132
		h17.94v70.161c0,7.099,1.826,12.598,5.501,16.493c3.672,3.895,8.858,5.842,15.58,5.842c6.76,0,11.978-1.947,15.679-5.842
		c3.709-3.896,5.56-9.395,5.56-16.493V1.132h17.943v69.625c0,8.546-1.534,15.867-4.617,21.932
		c-3.084,6.063-7.544,10.716-13.385,13.885c-5.843,3.178-12.917,4.777-21.145,4.777
		C250.481,111.321,243.468,109.752,237.595,106.574z"/>
	<path fill="#FFFFFF" d="M321.861,1.099h17.941v109.086h-17.941V1.099z M334.086,64.976l45.902-63.843h22.371l-68.117,88.697
		L334.086,64.976z M352.244,53.478l14.864-11.185l39.836,67.893h-21.523L352.244,53.478z"/>
	<path fill="#FFFFFF" d="M420.458,1.099h17.939v109.086h-17.939V1.099z M432.681,64.976l45.902-63.843h22.371l-68.117,88.697
		L432.681,64.976z M450.839,53.478l14.864-11.185l39.838,67.893h-21.523L450.839,53.478z"/>
</g>
</svg>
