<?xml version="1.0" encoding="utf-8"?>
<!-- Generator: Adobe Illustrator 16.0.0, SVG Export Plug-In . SVG Version: 6.00 Build 0)  -->
<!DOCTYPE svg PUBLIC "-//W3C//DTD SVG 1.1//EN" "http://www.w3.org/Graphics/SVG/1.1/DTD/svg11.dtd">
<svg version="1.1" id="Layer_1" xmlns="http://www.w3.org/2000/svg" xmlns:xlink="http://www.w3.org/1999/xlink" x="0px" y="0px"
	 width="512px" height="512px" viewBox="0 0 512 512" enable-background="new 0 0 512 512" xml:space="preserve">
<path d="M276.893,509.396c7.018-0.559,13.986-1.427,20.894-2.545V5.085c-6.907-1.118-13.876-1.992-20.894-2.551V509.396z
	 M368.646,484.04c4.912-2.426,9.765-5.041,14.496-7.777V35.672c-4.731-2.735-9.584-5.346-14.496-7.771V484.04z M322.773,501.449
	c5.96-1.617,11.871-3.494,17.661-5.47V16.086c-5.79-2.052-11.701-3.854-17.661-5.471V501.449z M460.41,407.38
	c2.805-3.793,5.47-7.646,8.086-11.561V116.181c-2.616-3.919-5.281-7.771-8.086-11.565V407.38z M506.232,210.68v90.582
	c2.675-14.736,4.103-29.841,4.103-45.324S508.907,225.41,506.232,210.68z M414.528,454.81c3.854-3.035,7.587-6.209,11.262-9.504
	V66.57c-3.675-3.295-7.408-6.405-11.262-9.514V454.81z M139.246,481.924c9.823,5.091,19.957,9.573,30.463,13.366V16.645
	c-10.506,3.794-20.699,8.271-30.463,13.367V481.924z M185.129,500.262c8.889,2.546,18.028,4.663,27.292,6.28V5.394
	c-9.264,1.617-18.403,3.729-27.292,6.28V500.262z M231.01,509.098c7.957,0.739,15.979,1.178,24.06,1.237V1.665
	c-8.146,0-16.162,0.435-24.06,1.244V509.098z M93.37,451.515c10.566,8.776,21.816,16.672,33.692,23.7V36.726
	c-11.876,7.028-23.126,14.925-33.692,23.69V451.515z M47.547,110.335v291.266c10.758,15.354,23.127,29.47,36.933,42.088V68.188
	C70.613,80.865,58.244,94.981,47.547,110.335z M41.768,392.954V118.916C16.4,158.453,1.665,205.453,1.665,255.938
	C1.665,306.423,16.4,353.423,41.768,392.954z"/>
</svg>
