<?xml version="1.0" encoding="utf-8"?>
<!-- Generator: Adobe Illustrator 16.0.0, SVG Export Plug-In . SVG Version: 6.00 Build 0)  -->
<!DOCTYPE svg PUBLIC "-//W3C//DTD SVG 1.1//EN" "http://www.w3.org/Graphics/SVG/1.1/DTD/svg11.dtd">
<svg version="1.1" id="Layer_1" xmlns="http://www.w3.org/2000/svg" xmlns:xlink="http://www.w3.org/1999/xlink" x="0px" y="0px"
	 width="505.816px" height="111.412px" viewBox="0 0 505.816 111.412" enable-background="new 0 0 505.816 111.412"
	 xml:space="preserve">
<g>
	<path d="M18.612,106.414c-5.911-3.336-10.5-8.051-13.738-14.119C1.603,86.233,0,79.19,0,71.176V40.24
		c0-8.017,1.636-15.059,4.874-21.126c3.238-6.068,7.828-10.783,13.738-14.115C24.521,1.668,31.343,0,39.108,0
		c7.765,0,14.585,1.668,20.497,4.999c5.912,3.332,10.468,8.047,13.738,14.115c3.238,6.067,4.872,13.141,4.872,21.126v30.936
		c0,8.015-1.634,15.058-4.872,21.119c-3.271,6.068-7.827,10.783-13.738,14.119c-5.911,3.333-12.731,4.998-20.497,4.998
		C31.343,111.412,24.521,109.712,18.612,106.414z M49.953,90.883c3.112-1.786,5.532-4.367,7.231-7.704
		c1.696-3.332,2.546-7.163,2.546-11.534v-31.97c0-4.339-0.848-8.205-2.546-11.54c-1.699-3.331-4.12-5.908-7.231-7.7
		c-3.143-1.792-6.76-2.704-10.845-2.704c-4.087,0-7.733,0.912-10.846,2.704c-3.143,1.792-5.534,4.369-7.23,7.7
		c-1.698,3.335-2.545,7.168-2.545,11.54v31.97c0,4.371,0.847,8.202,2.545,11.534c1.696,3.337,4.118,5.882,7.23,7.704
		c3.112,1.797,6.729,2.705,10.846,2.705C43.226,93.588,46.841,92.711,49.953,90.883z"/>
	<path d="M175.069,1.1h20.716v109.146h-16.813v-83.24l0.751,4.811l-23.856,64.792h-14.397l-23.863-63.283l0.752-6.319v83.24h-16.818
		V1.1h20.718l26.409,72.812L175.069,1.1z"/>
	<path d="M237.724,106.632c-5.845-3.17-10.307-7.794-13.358-13.892c-3.047-6.068-4.592-13.394-4.592-21.944V1.133h17.95v70.199
		c0,7.103,1.827,12.604,5.504,16.502c3.674,3.896,8.863,5.845,15.588,5.845c6.764,0,11.984-1.948,15.688-5.845
		c3.711-3.897,5.563-9.399,5.563-16.502V1.133h17.953v69.663c0,8.551-1.535,15.876-4.619,21.944
		c-3.086,6.066-7.549,10.722-13.393,13.892c-5.846,3.18-12.924,4.78-21.156,4.78C250.618,111.382,243.601,109.812,237.724,106.632z"
		/>
	<path d="M322.037,1.1h17.951v109.146h-17.951V1.1z M334.268,65.011l45.928-63.878h22.384l-68.155,88.745L334.268,65.011z
		 M352.437,53.507l14.872-11.191l39.857,67.93h-21.535L352.437,53.507z"/>
	<path d="M420.688,1.1h17.949v109.146h-17.949V1.1z M432.916,65.011l45.928-63.878h22.384l-68.154,88.745L432.916,65.011z
		 M451.085,53.507l14.872-11.191l39.859,67.93h-21.535L451.085,53.507z"/>
</g>
</svg>
