<?xml version="1.0" encoding="utf-8"?>
<!-- Generator: Adobe Illustrator 16.0.0, SVG Export Plug-In . SVG Version: 6.00 Build 0)  -->
<!DOCTYPE svg PUBLIC "-//W3C//DTD SVG 1.1//EN" "http://www.w3.org/Graphics/SVG/1.1/DTD/svg11.dtd">
<svg version="1.1" id="Layer_1" xmlns="http://www.w3.org/2000/svg" xmlns:xlink="http://www.w3.org/1999/xlink" x="0px" y="0px"
	 width="512px" height="512px" viewBox="0 0 512 512" enable-background="new 0 0 512 512" xml:space="preserve">
<path fill="#FFFFFF" d="M276.818,508.887c7.004-0.565,13.955-1.436,20.831-2.545V5.605c-6.876-1.119-13.827-1.989-20.831-2.543
	V508.887z M368.382,483.572c4.912-2.418,9.747-5.026,14.458-7.758V36.123c-4.711-2.733-9.546-5.326-14.458-7.758V483.572z
	 M322.601,500.876c5.956-1.61,11.851-3.474,17.619-5.467V16.514c-5.769-2.041-11.663-3.841-17.619-5.454V500.876z M459.969,407.072
	c2.784-3.778,5.455-7.632,8.061-11.536V116.465c-2.605-3.904-5.276-7.759-8.061-11.537V407.072z M505.738,210.772v90.393
	c2.67-14.698,4.105-29.786,4.105-45.228C509.844,240.495,508.358,225.407,505.738,210.772z M414.177,454.402
	c3.853-3.035,7.568-6.195,11.233-9.483V66.955c-3.665-3.288-7.381-6.385-11.233-9.483V454.402z M139.512,481.456
	c9.805,5.089,19.919,9.56,30.403,13.351V17.144c-10.484,3.777-20.662,8.249-30.403,13.337V481.456z M185.302,499.77
	c8.872,2.542,17.99,4.646,27.233,6.259V5.908c-9.243,1.612-18.361,3.729-27.233,6.273V499.77z M231.088,508.572
	c7.942,0.743,15.945,1.172,24.011,1.247V2.181c-8.128,0-16.132,0.441-24.011,1.247V508.572z M93.73,451.128
	c10.542,8.74,21.777,16.625,33.622,23.628V37.181c-11.845,7.016-23.08,14.888-33.622,23.642V451.128z M47.943,110.633v290.671
	c10.732,15.314,23.082,29.409,36.852,42.004V68.579C71.024,81.174,58.675,95.306,47.943,110.633z M42.169,392.677V119.197
	c-25.308,39.459-40.013,86.361-40.013,136.74S16.861,353.217,42.169,392.677z"/>
</svg>
