<?xml version="1.0" encoding="utf-8"?>
<!-- Generator: Adobe Illustrator 16.0.0, SVG Export Plug-In . SVG Version: 6.00 Build 0)  -->
<!DOCTYPE svg PUBLIC "-//W3C//DTD SVG 1.1//EN" "http://www.w3.org/Graphics/SVG/1.1/DTD/svg11.dtd">
<svg version="1.1" id="Layer_1" xmlns="http://www.w3.org/2000/svg" xmlns:xlink="http://www.w3.org/1999/xlink" x="0px" y="0px"
	 width="414.567px" height="107.676px" viewBox="1.312 1.868 414.567 107.676" enable-background="new 1.312 1.868 414.567 107.676"
	 xml:space="preserve">
<g>
	<path fill="#FFFFFF" d="M139.962,84.424c-3.348-1.89-5.947-4.56-7.78-7.997c-1.853-3.431-2.76-7.42-2.76-11.958V46.948
		c0-4.541,0.926-8.528,2.76-11.964c1.833-3.437,4.433-6.107,7.78-7.995c3.346-1.886,7.21-2.831,11.607-2.831
		s8.26,0.945,11.608,2.831c3.347,1.888,5.929,4.559,7.778,7.995c1.836,3.436,2.759,7.442,2.759,11.964v17.521
		c0,4.538-0.923,8.527-2.759,11.958c-1.851,3.438-4.431,6.107-7.778,7.997c-3.349,1.888-7.211,2.83-11.608,2.83
		S143.308,86.292,139.962,84.424z M157.711,75.629c1.762-1.013,3.133-2.475,4.095-4.364c0.961-1.886,1.442-4.055,1.442-6.531V46.628
		c0-2.457-0.481-4.646-1.442-6.535c-0.961-1.887-2.333-3.347-4.095-4.361c-1.779-1.015-3.828-1.53-6.142-1.53
		c-2.315,0-4.38,0.516-6.142,1.53c-1.781,1.015-3.135,2.475-4.095,4.361c-0.962,1.889-1.442,4.06-1.442,6.535v18.105
		c0,2.477,0.48,4.646,1.442,6.531c0.959,1.89,2.331,3.331,4.095,4.364c1.761,1.018,3.81,1.531,6.142,1.531
		C153.902,77.16,155.948,76.663,157.711,75.629z"/>
	<path fill="#FFFFFF" d="M228.568,24.782h11.731v61.813h-9.521V39.453l0.425,2.725l-13.51,36.692h-8.155l-13.514-35.838l0.425-3.578
		v47.141h-9.522V24.782h11.732l14.957,41.236L228.568,24.782z"/>
	<path fill="#FFFFFF" d="M264.053,84.548c-3.312-1.795-5.839-4.415-7.567-7.869c-1.725-3.436-2.6-7.583-2.6-12.427V24.801h10.167
		v39.756c0,4.022,1.032,7.138,3.116,9.346c2.079,2.206,5.02,3.31,8.827,3.31c3.829,0,6.786-1.104,8.885-3.31
		c2.101-2.208,3.149-5.323,3.149-9.346V24.801h10.168v39.451c0,4.844-0.869,8.991-2.616,12.427
		c-1.747,3.437-4.276,6.074-7.583,7.869c-3.312,1.799-7.321,2.706-11.983,2.706C271.353,87.236,267.379,86.347,264.053,84.548z"/>
	<path fill="#FFFFFF" d="M311.801,24.782h10.166v61.813h-10.166V24.782z M318.727,60.975l26.01-36.174h12.679l-38.6,50.258
		L318.727,60.975z M329.018,54.462l8.421-6.338l22.572,38.471h-12.196L329.018,54.462z"/>
	<path fill="#FFFFFF" d="M367.669,24.782h10.164v61.813h-10.164V24.782z M374.594,60.975l26.012-36.174h12.676l-38.598,50.258
		L374.594,60.975z M384.885,54.462l8.422-6.338l22.572,38.471h-12.195L384.885,54.462z"/>
</g>
<path fill="#FFFFFF" d="M59.571,109.347c1.485-0.119,2.96-0.305,4.418-0.539V2.595c-1.458-0.237-2.933-0.422-4.418-0.54V109.347z
	 M78.993,103.978c1.042-0.514,2.067-1.066,3.066-1.645V9.067c-0.999-0.579-2.025-1.129-3.066-1.646V103.978z M69.282,107.647
	c1.264-0.34,2.514-0.736,3.737-1.16V4.908c-1.224-0.433-2.474-0.813-3.737-1.156V107.647z M98.42,87.753
	c0.59-0.805,1.157-1.621,1.709-2.449V26.109c-0.553-0.828-1.119-1.646-1.709-2.447V87.753z M108.128,46.113v19.173
	c0.566-3.117,0.871-6.318,0.871-9.593C108.999,52.418,108.683,49.217,108.128,46.113z M88.706,97.79
	c0.817-0.645,1.605-1.313,2.383-2.012v-80.17c-0.777-0.698-1.565-1.355-2.383-2.013V97.79z M30.447,103.53
	c2.079,1.078,4.225,2.025,6.449,2.832V5.043c-2.224,0.8-4.383,1.749-6.449,2.828V103.53z M40.159,107.413
	c1.882,0.539,3.816,0.986,5.777,1.328V2.659c-1.96,0.342-3.895,0.791-5.777,1.33V107.413z M49.871,109.28
	c1.685,0.156,3.382,0.25,5.093,0.264V1.868c-1.724,0-3.422,0.094-5.093,0.265V109.28z M20.735,97.095
	c2.236,1.855,4.619,3.527,7.132,5.014V9.293c-2.513,1.488-4.896,3.157-7.132,5.015V97.095z M11.023,24.872v61.656
	c2.276,3.248,4.896,6.238,7.817,8.908V15.952C15.919,18.624,13.3,21.621,11.023,24.872z M9.799,84.696V26.688
	c-5.369,8.37-8.488,18.319-8.488,29.005C1.312,66.38,4.43,76.327,9.799,84.696z"/>
</svg>
